<svg width="114" height="156" viewBox="0 0 114 156" fill="none" xmlns="http://www.w3.org/2000/svg">
<path d="M109.209 105.259C108.589 133.279 85.1661 156 56.8845 156C28.6029 156 4.47119 133.294 4.5598 105.259C4.78133 37.0239 -5.06923 21.5059 3.52602 13.9958C9.83215 8.47667 15.4737 15.2694 33.6537 9.06222C46.2069 4.78745 47.9348 0.0442179 56.7959 0.000299041C65.7161 -0.0436198 67.5473 4.75818 80.3073 9.06222C98.4134 15.1669 103.833 8.54987 110.066 13.9958C118.646 21.5059 110.745 35.8674 109.209 105.259Z" fill="#761614"/>
<path d="M43.3855 60.9885H18.9584C17.3191 60.9885 16.3149 59.2318 17.1271 57.8117C19.1947 54.1957 24.7034 51.6191 31.172 51.6191C37.6405 51.6191 43.1492 54.1957 45.2168 57.8117C46.029 59.2318 45.0248 60.9885 43.3855 60.9885Z" fill="#E5C441"/>
<path d="M95.0456 60.9904H70.6186C68.9793 60.9904 67.975 59.2337 68.7873 57.8137C70.8549 54.1977 76.3635 51.6211 82.8321 51.6211C89.3007 51.6211 94.8094 54.1977 96.8769 57.8137C97.6892 59.2337 96.6849 60.9904 95.0456 60.9904Z" fill="#E5C441"/>
<path d="M79.0248 127.447H34.9852C32.0167 127.447 30.2298 122.719 31.6918 118.912C35.4283 109.192 45.3674 102.253 57.005 102.253C68.6425 102.253 78.5965 109.192 82.3181 118.912C83.7802 122.719 81.9785 127.447 79.0248 127.447Z" fill="#E5C441"/>
</svg>
