<svg width="117" height="156" viewBox="0 0 117 156" fill="none" xmlns="http://www.w3.org/2000/svg">
<path d="M115.962 100.183C115.281 131.006 89.5583 156 58.5 156C27.4416 156 1.71916 131.006 1.03798 100.183C1.03798 50.5819 0.129748 48.0858 0 5.57067C0 1.15812 4.93041 -1.51517 8.62822 0.932665C18.6837 7.5998 36.1185 16.3122 58.5 16.3122C80.8815 16.3122 98.3163 7.5998 108.372 0.932665C112.07 -1.51517 117.016 1.14202 117 5.57067C116.87 48.0858 115.962 50.5819 115.962 100.183Z" fill="#761614"/>
<path d="M43.5465 56.959H16.7211C14.9209 56.959 13.818 55.0265 14.71 53.4644C16.9806 49.4867 23.0301 46.6523 30.1338 46.6523C37.2375 46.6523 43.287 49.4867 45.5575 53.4644C46.4496 55.0265 45.3467 56.959 43.5465 56.959Z" fill="#E5C441"/>
<path d="M100.277 56.961H73.4516C71.6513 56.961 70.5485 55.0285 71.4405 53.4664C73.7111 49.4886 79.7606 46.6543 86.8643 46.6543C93.9679 46.6543 100.017 49.4886 102.288 53.4664C103.18 55.0285 102.077 56.961 100.277 56.961Z" fill="#E5C441"/>
<path d="M83.0238 105.748H34.6604C31.4005 105.748 29.438 110.95 31.0437 115.137C35.1469 125.83 46.062 133.463 58.8421 133.463C71.6223 133.463 82.5535 125.83 86.6405 115.137C88.2462 110.95 86.2675 105.748 83.0238 105.748Z" fill="#E5C441"/>
</svg>
