<svg width="150" height="156" viewBox="0 0 150 156" fill="none" xmlns="http://www.w3.org/2000/svg">
<path d="M130.015 102.13C104.929 138.033 92.3861 156 75.0832 156C56.85 156 44.617 137.753 20.151 102.13C-5.04371 65.4494 -0.144301 53.7304 1.48366 50.6219C5.66986 42.6952 13.8407 43.0372 19.3293 33.5096C24.0426 25.3187 23.4224 15.6513 21.3913 7.41378C20.4611 3.63695 23.3294 0 27.2055 0H122.976C126.853 0 129.69 3.60586 128.806 7.38268C126.915 15.4026 126.325 24.9923 130.806 33.5096C136.264 43.892 144.698 44.0941 148.652 52.7201C150.791 57.3829 153.458 68.5424 129.984 102.13H130.015Z" fill="#761614"/>
<path d="M60.7123 50.7948H35.0679C33.3469 50.7948 32.2926 48.9297 33.1454 47.4221C35.316 43.5831 41.0991 40.8477 47.8901 40.8477C54.681 40.8477 60.4642 43.5831 62.6348 47.4221C63.4876 48.9297 62.4332 50.7948 60.7123 50.7948Z" fill="#E5C441"/>
<path d="M114.958 50.7929H89.314C87.593 50.7929 86.5387 48.9278 87.3915 47.4202C89.5621 43.5812 95.3453 40.8457 102.136 40.8457C108.927 40.8457 114.71 43.5812 116.881 47.4202C117.734 48.9278 116.679 50.7929 114.958 50.7929Z" fill="#E5C441"/>
<path d="M98.4173 105.053H52.183C49.0667 105.053 47.1906 110.073 48.7256 114.114C52.6482 124.434 63.0827 131.801 75.3002 131.801C87.5177 131.801 97.9676 124.434 101.875 114.114C103.41 110.073 101.518 105.053 98.4173 105.053Z" fill="#E5C441"/>
</svg>
