<svg width="113" height="157" viewBox="0 0 113 157" fill="none" xmlns="http://www.w3.org/2000/svg">
<path d="M111.719 102.198C111.065 131.966 86.3598 156.104 56.5295 156.104C26.6993 156.104 1.99388 131.966 1.33964 102.198C1.33964 52.7554 0.10904 71.0146 0 27.6997C0 23.2982 2.10291 19.1612 5.68566 16.5638C14.7204 10.0316 32.307 0 56.2024 0C80.0978 0 97.6844 10.0316 106.719 16.5794C110.286 19.1612 112.405 23.2827 112.405 27.6997C112.342 71.0146 111.719 52.7555 111.719 102.214V102.198Z" fill="#761614"/>
<path d="M41.8391 53.2976H16.0744C14.3454 53.2976 13.2861 51.4313 14.1429 49.9226C16.3237 46.0811 22.134 43.3438 28.9568 43.3438C35.7796 43.3438 41.5898 46.0811 43.7706 49.9226C44.6274 51.4313 43.5681 53.2976 41.8391 53.2976Z" fill="#E5C441"/>
<path d="M96.3274 53.2976H70.5627C68.8337 53.2976 67.7744 51.4313 68.6312 49.9226C70.812 46.0811 76.6222 43.3438 83.445 43.3438C90.2678 43.3438 96.0781 46.0811 98.2589 49.9226C99.1157 51.4313 98.0564 53.2976 96.3274 53.2976Z" fill="#E5C441"/>
<path d="M79.5748 122.637H33.1237C29.9927 122.637 28.1079 117.613 29.65 113.569C33.591 103.242 44.0745 95.8702 56.3493 95.8702C68.6241 95.8702 79.1231 103.242 83.0485 113.569C84.5907 117.613 82.6902 122.637 79.5748 122.637Z" fill="#E5C441"/>
</svg>
